<svg width="476" height="48" viewBox="0 0 476 48" fill="none" xmlns="http://www.w3.org/2000/svg">
<path d="M27.752 25.184C27.752 25.28 27.704 25.952 27.608 27.2H8.072C8.424 28.8 9.256 30.064 10.568 30.992C11.88 31.92 13.512 32.384 15.464 32.384C16.808 32.384 17.992 32.192 19.016 31.808C20.072 31.392 21.048 30.752 21.944 29.888L25.928 34.208C23.496 36.992 19.944 38.384 15.272 38.384C12.36 38.384 9.784 37.824 7.544 36.704C5.304 35.552 3.576 33.968 2.36 31.952C1.144 29.936 0.536 27.648 0.536 25.088C0.536 22.56 1.128 20.288 2.312 18.272C3.528 16.224 5.176 14.64 7.256 13.52C9.368 12.368 11.72 11.792 14.312 11.792C16.84 11.792 19.128 12.336 21.176 13.424C23.224 14.512 24.824 16.08 25.976 18.128C27.16 20.144 27.752 22.496 27.752 25.184ZM14.36 17.456C12.664 17.456 11.24 17.936 10.088 18.896C8.936 19.856 8.232 21.168 7.976 22.832H20.696C20.44 21.2 19.736 19.904 18.584 18.944C17.432 17.952 16.024 17.456 14.36 17.456ZM48.0013 11.792C50.4013 11.792 52.5773 12.352 54.5293 13.472C56.5133 14.56 58.0653 16.112 59.1853 18.128C60.3053 20.112 60.8653 22.432 60.8653 25.088C60.8653 27.744 60.3053 30.08 59.1853 32.096C58.0653 34.08 56.5133 35.632 54.5293 36.752C52.5773 37.84 50.4013 38.384 48.0013 38.384C44.7053 38.384 42.1133 37.344 40.2253 35.264V47.312H32.7373V12.176H39.8893V15.152C41.7453 12.912 44.4493 11.792 48.0013 11.792ZM46.7053 32.24C48.6253 32.24 50.1933 31.6 51.4093 30.32C52.6573 29.008 53.2812 27.264 53.2812 25.088C53.2812 22.912 52.6573 21.184 51.4093 19.904C50.1933 18.592 48.6253 17.936 46.7053 17.936C44.7853 17.936 43.2013 18.592 41.9532 19.904C40.7373 21.184 40.1293 22.912 40.1293 25.088C40.1293 27.264 40.7373 29.008 41.9532 30.32C43.2013 31.6 44.7853 32.24 46.7053 32.24ZM65.8779 12.176H73.3659V38H65.8779V12.176ZM69.6219 8.576C68.2459 8.576 67.1259 8.176 66.2619 7.376C65.3979 6.576 64.9659 5.584 64.9659 4.4C64.9659 3.216 65.3979 2.224 66.2619 1.424C67.1259 0.623998 68.2459 0.223997 69.6219 0.223997C70.9979 0.223997 72.1179 0.607998 72.9819 1.376C73.8459 2.144 74.2779 3.104 74.2779 4.256C74.2779 5.504 73.8459 6.544 72.9819 7.376C72.1179 8.176 70.9979 8.576 69.6219 8.576ZM92.7954 38.384C90.0434 38.384 87.5634 37.824 85.3554 36.704C83.1794 35.552 81.4674 33.968 80.2194 31.952C79.0034 29.936 78.3954 27.648 78.3954 25.088C78.3954 22.528 79.0034 20.24 80.2194 18.224C81.4674 16.208 83.1794 14.64 85.3554 13.52C87.5634 12.368 90.0434 11.792 92.7954 11.792C95.5154 11.792 97.8834 12.368 99.8994 13.52C101.947 14.64 103.435 16.256 104.363 18.368L98.5554 21.488C97.2114 19.12 95.2754 17.936 92.7474 17.936C90.7954 17.936 89.1794 18.576 87.8994 19.856C86.6194 21.136 85.9794 22.88 85.9794 25.088C85.9794 27.296 86.6194 29.04 87.8994 30.32C89.1794 31.6 90.7954 32.24 92.7474 32.24C95.3074 32.24 97.2434 31.056 98.5554 28.688L104.363 31.856C103.435 33.904 101.947 35.504 99.8994 36.656C97.8834 37.808 95.5154 38.384 92.7954 38.384ZM140.241 4.4L125.697 38H118.017L103.521 4.4H111.921L122.145 28.4L132.513 4.4H140.241ZM167.644 12.176V38H160.54V34.928C159.548 36.048 158.364 36.912 156.988 37.52C155.612 38.096 154.124 38.384 152.524 38.384C149.132 38.384 146.444 37.408 144.46 35.456C142.476 33.504 141.484 30.608 141.484 26.768V12.176H148.972V25.664C148.972 29.824 150.716 31.904 154.204 31.904C155.996 31.904 157.436 31.328 158.524 30.176C159.612 28.992 160.156 27.248 160.156 24.944V12.176H167.644ZM199.877 25.184C199.877 25.28 199.829 25.952 199.733 27.2H180.197C180.549 28.8 181.381 30.064 182.693 30.992C184.005 31.92 185.637 32.384 187.589 32.384C188.933 32.384 190.117 32.192 191.141 31.808C192.197 31.392 193.173 30.752 194.069 29.888L198.053 34.208C195.621 36.992 192.069 38.384 187.397 38.384C184.485 38.384 181.909 37.824 179.669 36.704C177.429 35.552 175.701 33.968 174.485 31.952C173.269 29.936 172.661 27.648 172.661 25.088C172.661 22.56 173.253 20.288 174.437 18.272C175.653 16.224 177.301 14.64 179.381 13.52C181.493 12.368 183.845 11.792 186.437 11.792C188.965 11.792 191.253 12.336 193.301 13.424C195.349 14.512 196.949 16.08 198.101 18.128C199.285 20.144 199.877 22.496 199.877 25.184ZM186.485 17.456C184.789 17.456 183.365 17.936 182.213 18.896C181.061 19.856 180.357 21.168 180.101 22.832H192.821C192.565 21.2 191.861 19.904 190.709 18.944C189.557 17.952 188.149 17.456 186.485 17.456ZM230.062 20.528C231.982 21.136 233.486 22.16 234.574 23.6C235.662 25.008 236.206 26.752 236.206 28.832C236.206 31.776 235.054 34.048 232.75 35.648C230.478 37.216 227.15 38 222.766 38H205.39V4.4H221.806C225.902 4.4 229.038 5.184 231.214 6.752C233.422 8.32 234.526 10.448 234.526 13.136C234.526 14.768 234.126 16.224 233.326 17.504C232.558 18.784 231.47 19.792 230.062 20.528ZM213.118 10.256V18.176H220.846C222.766 18.176 224.222 17.84 225.214 17.168C226.206 16.496 226.702 15.504 226.702 14.192C226.702 12.88 226.206 11.904 225.214 11.264C224.222 10.592 222.766 10.256 220.846 10.256H213.118ZM222.19 32.144C224.238 32.144 225.774 31.808 226.798 31.136C227.854 30.464 228.382 29.424 228.382 28.016C228.382 25.232 226.318 23.84 222.19 23.84H213.118V32.144H222.19ZM253.853 38.384C251.133 38.384 248.685 37.824 246.509 36.704C244.365 35.552 242.685 33.968 241.469 31.952C240.253 29.936 239.645 27.648 239.645 25.088C239.645 22.528 240.253 20.24 241.469 18.224C242.685 16.208 244.365 14.64 246.509 13.52C248.685 12.368 251.133 11.792 253.853 11.792C256.573 11.792 259.005 12.368 261.149 13.52C263.293 14.64 264.973 16.208 266.189 18.224C267.405 20.24 268.013 22.528 268.013 25.088C268.013 27.648 267.405 29.936 266.189 31.952C264.973 33.968 263.293 35.552 261.149 36.704C259.005 37.824 256.573 38.384 253.853 38.384ZM253.853 32.24C255.773 32.24 257.341 31.6 258.557 30.32C259.805 29.008 260.429 27.264 260.429 25.088C260.429 22.912 259.805 21.184 258.557 19.904C257.341 18.592 255.773 17.936 253.853 17.936C251.933 17.936 250.349 18.592 249.101 19.904C247.853 21.184 247.229 22.912 247.229 25.088C247.229 27.264 247.853 29.008 249.101 30.32C250.349 31.6 251.933 32.24 253.853 32.24ZM273.019 12.176H280.507V38H273.019V12.176ZM276.763 8.576C275.387 8.576 274.267 8.176 273.403 7.376C272.539 6.576 272.107 5.584 272.107 4.4C272.107 3.216 272.539 2.224 273.403 1.424C274.267 0.623998 275.387 0.223997 276.763 0.223997C278.139 0.223997 279.259 0.607998 280.123 1.376C280.987 2.144 281.419 3.104 281.419 4.256C281.419 5.504 280.987 6.544 280.123 7.376C279.259 8.176 278.139 8.576 276.763 8.576ZM287.456 2.384H294.944V38H287.456V2.384ZM327.19 25.184C327.19 25.28 327.142 25.952 327.046 27.2H307.51C307.862 28.8 308.694 30.064 310.006 30.992C311.318 31.92 312.95 32.384 314.902 32.384C316.246 32.384 317.43 32.192 318.454 31.808C319.51 31.392 320.486 30.752 321.382 29.888L325.366 34.208C322.934 36.992 319.382 38.384 314.71 38.384C311.798 38.384 309.222 37.824 306.982 36.704C304.742 35.552 303.014 33.968 301.798 31.952C300.582 29.936 299.974 27.648 299.974 25.088C299.974 22.56 300.566 20.288 301.75 18.272C302.966 16.224 304.614 14.64 306.694 13.52C308.806 12.368 311.158 11.792 313.75 11.792C316.278 11.792 318.566 12.336 320.614 13.424C322.662 14.512 324.262 16.08 325.414 18.128C326.598 20.144 327.19 22.496 327.19 25.184ZM313.798 17.456C312.102 17.456 310.678 17.936 309.526 18.896C308.374 19.856 307.67 21.168 307.414 22.832H320.134C319.878 21.2 319.174 19.904 318.022 18.944C316.87 17.952 315.462 17.456 313.798 17.456ZM339.327 15.584C340.223 14.336 341.423 13.392 342.927 12.752C344.463 12.112 346.223 11.792 348.207 11.792V18.704C347.375 18.64 346.815 18.608 346.527 18.608C344.383 18.608 342.703 19.216 341.487 20.432C340.271 21.616 339.663 23.408 339.663 25.808V38H332.175V12.176H339.327V15.584ZM367.923 11.792C370.323 11.792 372.499 12.352 374.451 13.472C376.435 14.56 377.987 16.112 379.107 18.128C380.227 20.112 380.787 22.432 380.787 25.088C380.787 27.744 380.227 30.08 379.107 32.096C377.987 34.08 376.435 35.632 374.451 36.752C372.499 37.84 370.323 38.384 367.923 38.384C364.627 38.384 362.035 37.344 360.147 35.264V47.312H352.659V12.176H359.811V15.152C361.667 12.912 364.371 11.792 367.923 11.792ZM366.627 32.24C368.547 32.24 370.115 31.6 371.331 30.32C372.579 29.008 373.203 27.264 373.203 25.088C373.203 22.912 372.579 21.184 371.331 19.904C370.115 18.592 368.547 17.936 366.627 17.936C364.707 17.936 363.123 18.592 361.875 19.904C360.659 21.184 360.051 22.912 360.051 25.088C360.051 27.264 360.659 29.008 361.875 30.32C363.123 31.6 364.707 32.24 366.627 32.24ZM385.8 2.384H393.288V38H385.8V2.384ZM410.653 11.792C414.653 11.792 417.725 12.752 419.869 14.672C422.013 16.56 423.085 19.424 423.085 23.264V38H416.077V34.784C414.669 37.184 412.045 38.384 408.205 38.384C406.221 38.384 404.493 38.048 403.021 37.376C401.581 36.704 400.477 35.776 399.709 34.592C398.941 33.408 398.557 32.064 398.557 30.56C398.557 28.16 399.453 26.272 401.245 24.896C403.069 23.52 405.869 22.832 409.645 22.832H415.597C415.597 21.2 415.101 19.952 414.109 19.088C413.117 18.192 411.629 17.744 409.645 17.744C408.269 17.744 406.909 17.968 405.565 18.416C404.253 18.832 403.133 19.408 402.205 20.144L399.517 14.912C400.925 13.92 402.605 13.152 404.557 12.608C406.541 12.064 408.573 11.792 410.653 11.792ZM410.077 33.344C411.357 33.344 412.493 33.056 413.485 32.48C414.477 31.872 415.181 30.992 415.597 29.84V27.2H410.461C407.389 27.2 405.853 28.208 405.853 30.224C405.853 31.184 406.221 31.952 406.957 32.528C407.725 33.072 408.765 33.344 410.077 33.344ZM446.518 36.752C445.782 37.296 444.87 37.712 443.782 38C442.726 38.256 441.606 38.384 440.422 38.384C437.35 38.384 434.966 37.6 433.27 36.032C431.606 34.464 430.774 32.16 430.774 29.12V18.512H426.79V12.752H430.774V6.464H438.262V12.752H444.694V18.512H438.262V29.024C438.262 30.112 438.534 30.96 439.078 31.568C439.654 32.144 440.454 32.432 441.478 32.432C442.662 32.432 443.67 32.112 444.502 31.472L446.518 36.752ZM475.221 25.184C475.221 25.28 475.173 25.952 475.077 27.2H455.541C455.893 28.8 456.725 30.064 458.037 30.992C459.349 31.92 460.981 32.384 462.933 32.384C464.277 32.384 465.461 32.192 466.485 31.808C467.541 31.392 468.517 30.752 469.413 29.888L473.397 34.208C470.965 36.992 467.413 38.384 462.741 38.384C459.829 38.384 457.253 37.824 455.013 36.704C452.773 35.552 451.045 33.968 449.829 31.952C448.613 29.936 448.005 27.648 448.005 25.088C448.005 22.56 448.597 20.288 449.781 18.272C450.997 16.224 452.645 14.64 454.725 13.52C456.837 12.368 459.189 11.792 461.781 11.792C464.309 11.792 466.597 12.336 468.645 13.424C470.693 14.512 472.293 16.08 473.445 18.128C474.629 20.144 475.221 22.496 475.221 25.184ZM461.829 17.456C460.133 17.456 458.709 17.936 457.557 18.896C456.405 19.856 455.701 21.168 455.445 22.832H468.165C467.909 21.2 467.205 19.904 466.053 18.944C464.901 17.952 463.493 17.456 461.829 17.456Z" fill="#00FF85"/>
</svg>
